<?xml version="1.0" encoding="UTF-8"?>
<svg width="320" height="320" style="isolation:isolate" version="1.1" viewBox="440 302 320 320" xmlns="http://www.w3.org/2000/svg" xmlns:cc="http://creativecommons.org/ns#" xmlns:dc="http://purl.org/dc/elements/1.1/" xmlns:rdf="http://www.w3.org/1999/02/22-rdf-syntax-ns#">
 <metadata>
  <rdf:RDF>
   <cc:Work rdf:about="">
    <dc:format>image/svg+xml</dc:format>
    <dc:type rdf:resource="http://purl.org/dc/dcmitype/StillImage"/>
   </cc:Work>
  </rdf:RDF>
 </metadata>
 <defs>
  <clipPath id="_clipPath_2NWExr3hhUzvsvQctasUYA1HHcJFqS7W">
   <rect x="440" y="302" width="320" height="320"/>
  </clipPath>
 </defs>
 <g clip-path="url(#_clipPath_2NWExr3hhUzvsvQctasUYA1HHcJFqS7W)">
  <path d="m611.57 535.74h-101.91v-72.062l37.701-63.459 23.606 66.76 40.606 68.761z" fill="#525b56"/>
  <path d="m555.66 447.68-14 1-1-12.459 1-5.541-1-6 5-9 5.885 22 4.115 10z" fill="#fff"/>
  <path d="m751.17 511.87v23.865h-154.85l41.581-56.061 40.342-54.389q1.54 24.792 24.923 69.585 9.132 17.496 48 17z" fill="#525b56"/>
  <path d="m669.59 447 4.957-6.66 0.306 1.298c0.573 2.269 1.172 4.514 1.853 6.755 0.741 2.399 1.512 4.784 2.351 7.157 0.609 1.735 1.204 3.459 1.872 5.17 0.694 1.811 1.388 3.609 2.132 5.406q2.447 5.819 7.6 17.153l-2.44 3.721-4.713-4.716-3.207-9.819-6.3-4.617-4.411-6.457 1.543-7.391-1.543-7z" fill="#fff"/>
  <radialGradient id="_rgradient_0" cx=".5" cy=".5" r=".5" fx=".50406" fy=".49788" gradientTransform="matrix(473.15 .066 .209 401.87 332.69 302.36)" gradientUnits="userSpaceOnUse">
   <stop stop-color="#525b56" offset="0"/>
   <stop stop-color="#303532" offset="1"/>
  </radialGradient>
  <path d="m698 535.74h-188.34v-61.062l28-32.469 71-91.531q22.633 59.929 37 91.531 25.28 55.606 52.341 93.531z" fill="url(#_rgradient_0)"/>
  <path d="m628.78 445.22-4.125-2-2-4-4-4-5 1-8-2-4-6 1-6-5.017-4.363 4.017-7.178 3-7-3-8 5-6.312-2-8.688-6-4 8-11q9.967 27.821 16 42.647 5.621 13.812 17 38.884l-10.875-1.99z" fill="#fff"/>
  <defs>
   <filter id="qyILmbcv1Z5UjMxJv2PF1QMCQZBPrlIP" x="0" y="0" width="1" height="1" color-interpolation-filters="sRGB">
    <feGaussianBlur/>
   </filter>
  </defs>
  <g filter="url(#qyILmbcv1Z5UjMxJv2PF1QMCQZBPrlIP)">
   <path d="m569.95 535.74c-1.387 1.987-1.692 4.665-0.287 8.479h-21c-0.642-3.313-0.541-6.108 0.121-8.479h21.166z" fill="#525b56"/>
  </g>
  <g fill="#be9063">
   <rect x="491.66" y="520.68" width="15" height="15"/>
   <rect x="491.66" y="502.68" width="15" height="15"/>
   <rect x="491.66" y="484.68" width="15" height="15"/>
   <rect x="491.66" y="466.68" width="15" height="15"/>
   <rect x="473.66" y="520.68" width="15" height="15"/>
   <rect x="473.66" y="484.68" width="15" height="15"/>
   <rect x="455.66" y="520.68" width="15" height="15"/>
   <rect x="455.66" y="502.68" width="15" height="15"/>
   <rect x="473.66" y="502.68" width="15" height="15"/>
   <path d="m490.76 373.06q13.769-1.913 30.492 7.77-17.276-4.558-29.803-2.817-12.528 1.741-29.016 12.318 14.559-15.357 28.327-17.271z"/>
   <path d="m521.68 392.39q12.068 1.834 43.101-8.248-30.721 5.862-42.517 4.406-11.797-1.456-22.773-5.033 10.12 7.04 22.189 8.875z"/>
  </g>
  <defs>
   <filter id="hNuQ8TjFhOFsQZOEfPSwIfp9HczsjC4O" x="0" y="0" width="1" height="1" color-interpolation-filters="sRGB">
    <feGaussianBlur/>
   </filter>
  </defs>
  <g filter="url(#hNuQ8TjFhOFsQZOEfPSwIfp9HczsjC4O)">
   <radialGradient id="_rgradient_1" cx=".5" cy=".5" r=".5" gradientTransform="matrix(388.74 -.326 .882 120.88 472.37 500.86)" gradientUnits="userSpaceOnUse">
    <stop stop-color="#525b56" offset="0"/>
    <stop stop-color="#464e49" offset=".97826"/>
   </radialGradient>
   <path d="m598.49 573.32h-16.107q-0.969 0-1.308-0.288-0.34-0.287-0.131-0.931l1.287-3.959q0.209-0.644 0.736-0.931 0.527-0.288 1.495-0.288h13.711q0.663 0 1.088-0.288 0.425-0.287 0.557-0.693 0.187-0.576-0.056-0.847-0.244-0.27-0.895-0.304l-7.415-0.711q-3.458-0.338-5.228-1.557-1.77-1.218-0.846-4.061l1.156-3.554q0.935-2.877 4.239-4.417t8.248-1.54h14.272q0.968 0 1.308 0.288t0.13 0.931l-1.309 4.027q-0.209 0.643-0.736 0.931-0.526 0.288-1.495 0.288h-11.876q-0.663 0-1.113 0.287-0.45 0.288-0.593 0.728t0.114 0.745q0.258 0.304 0.91 0.338l7.374 0.677q3.458 0.338 5.254 1.557 1.795 1.218 0.871 4.061l-1.155 3.554q-0.935 2.877-4.265 4.417-3.329 1.54-8.222 1.54zm107.24-18.04h-4.587l-1.661 5.111h4.587q1.478 0 2.102-0.508 0.624-0.507 0.833-1.15l0.583-1.794q0.209-0.643-0.085-1.151t-1.772-0.508zm-66.723 18.04h-12.437q-6.371 0-8.905-1.692-2.533-1.693-1.389-5.213l3.422-10.525q1.144-3.52 4.784-5.229 3.639-1.71 10.01-1.71h12.437q0.969 0 1.308 0.288 0.34 0.288 0.131 0.931l-1.331 4.095q-0.209 0.643-0.736 0.931-0.527 0.287-1.495 0.287h-10.245q-1.581 0-2.483 0.423-0.902 0.424-1.177 1.27l-2.618 8.055q-0.276 0.846 0.362 1.235t2.219 0.389h10.245q0.968 0 1.308 0.288t0.13 0.931l-1.309 4.027q-0.209 0.644-0.736 0.931-0.526 0.288-1.495 0.288zm26.509-17.261-4.068 5.144h8.003l-0.723-5.144q-0.105-0.305-0.291-0.44-0.185-0.136-0.491-0.136h-1.274q-0.306 0-0.579 0.136-0.274 0.135-0.577 0.44zm78.541 17.261h-23.65q-0.969 0-1.308-0.288-0.34-0.287-0.131-0.931l7.13-21.931q0.209-0.643 0.736-0.931t1.495-0.288h23.65q0.969 0 1.308 0.288 0.34 0.288 0.131 0.931l-1.287 3.96q-0.209 0.643-0.736 0.93-0.527 0.288-1.495 0.288h-14.068l-0.847 2.606h9.939q0.968 0 1.308 0.288 0.34 0.287 0.131 0.931l-1.178 3.621q-0.209 0.643-0.735 0.931-0.527 0.287-1.496 0.287h-9.939l-0.946 2.911h14.068q0.968 0 1.308 0.288 0.34 0.287 0.131 0.931l-1.288 3.959q-0.209 0.644-0.736 0.931-0.526 0.288-1.495 0.288zm-85.121-5.957-1.54 4.738q-0.209 0.644-0.736 0.931-0.527 0.288-1.495 0.288h-7.493q-0.968 0-1.308-0.288-0.34-0.287-0.131-0.931l2.905-8.935q0.33-1.015 1.243-2.335 0.914-1.32 2.505-3.08l6.932-7.683q0.493-0.575 1.218-0.846 0.726-0.271 1.745-0.271h13.711q0.968 0 1.518 0.271 0.549 0.271 0.667 0.846l1.937 7.683q0.448 1.76 0.503 3.08t-0.275 2.335l-2.905 8.935q-0.209 0.644-0.736 0.931-0.527 0.288-1.495 0.288h-7.697q-1.019 0-1.41-0.288-0.391-0.287-0.181-0.931l1.54-4.738h-9.022zm34.609 5.957h-7.9q-0.968 0-1.308-0.288-0.34-0.287-0.131-0.931l7.13-21.931q0.209-0.643 0.736-0.931t1.495-0.288h15.597q6.932 0 8.886 1.828 1.955 1.828 0.998 4.772l-1.409 4.332q-0.957 2.945-4.1 4.772-3.142 1.828-10.074 1.828h-5.862l-1.826 5.618q-0.21 0.644-0.736 0.931-0.527 0.288-1.496 0.288z" fill="url(#_rgradient_1)" fill-rule="evenodd"/>
  </g>
  <defs>
   <filter id="7oiNQtlayM8EZa5IBftR8V5hGyNAmMfZ" x="0" y="0" width="1" height="1" color-interpolation-filters="sRGB">
    <feGaussianBlur/>
   </filter>
  </defs>
  <g filter="url(#7oiNQtlayM8EZa5IBftR8V5hGyNAmMfZ)">
   <path d="m520.66 566.93h10.943q0.663 0 1.088-0.288 0.424-0.287 0.556-0.693 0.187-0.576-0.056-0.847-0.243-0.27-0.895-0.304l-7.414-0.711q-3.458-0.338-5.228-1.557-1.77-1.218-0.846-4.061l0.582-1.79h11.599q-0.02 0.286 0.164 0.504 0.258 0.304 0.909 0.338l7.375 0.677q3.458 0.338 5.253 1.557 1.796 1.218 0.872 4.061l-1.155 3.554q-0.936 2.877-4.265 4.417-3.33 1.54-8.223 1.54h-32.825q-1.019 0-1.41-0.288-0.391-0.287-0.182-0.931l1.541-4.738h-9.022l-1.54 4.738q-0.209 0.644-0.736 0.931-0.527 0.288-1.495 0.288h-7.493q-0.969 0-1.308-0.288-0.34-0.287-0.131-0.931l2.905-8.935q0.33-1.015 1.243-2.335 0.914-1.32 2.505-3.08l0.974-1.079h11.171l-3.583 4.531h8.003l-0.637-4.531h11.528l0.272 1.079q0.447 1.76 0.502 3.08 0.056 1.32-0.275 2.335l-1.221 3.757h9.955zm-0.615-12.251q0.99-2.705 4.157-4.181 2.861-1.333 6.951-1.512v-0.028h1.266q0.015 0 0.031 0h14.272q7e-3 0 0.015 0h8.942q7e-3 0 0.014 0h26.912q0.969 0 1.309 0.288 0.339 0.288 0.13 0.931l-1.331 4.095q-0.073 0.225-0.186 0.407h-62.482zm40.631 2-5.016 15.429q-0.209 0.644 0.13 0.931 0.34 0.288 1.309 0.288h8.257q0.968 0 1.495-0.288 0.527-0.287 0.736-0.931l5.016-15.429h-11.927zm-108.43-2 1.464-4.502q0.209-0.643 0.736-0.931 0.526-0.288 1.495-0.288h22.733q7e-3 0 0.014 0h15.159q8e-3 0 0.016 0h13.711q0.968 0 1.517 0.271 0.55 0.271 0.668 0.846l1.161 4.604h-58.674zm-0.65 2-5.016 15.429q-0.209 0.644 0.131 0.931 0.339 0.288 1.308 0.288h7.9q0.969 0 1.495-0.288 0.527-0.287 0.736-0.931l2.168-6.667h8.869q0.968 0 1.495-0.288 0.527-0.287 0.736-0.93l1.32-4.062q0.209-0.643-0.131-0.931-0.339-0.287-1.308-0.287h-8.869l0.736-2.264h-11.57z" fill="#be9063" fill-rule="evenodd"/>
  </g>
  <defs>
   <filter id="c9Gs9VZ2GYBj3SsHXw8JiOiIKCIbliLB" x="0" y="0" width="1" height="1" color-interpolation-filters="sRGB">
    <feGaussianBlur/>
   </filter>
  </defs>
  <g filter="url(#c9Gs9VZ2GYBj3SsHXw8JiOiIKCIbliLB)">
   <path d="m569.95 535.74c4.952-7.091 23.689-5.376 27.696-15.042q7.938-19.147-46.098-56h-5.885q43.448 35.365 36.816 52c-2.381 5.971-29.47 3.888-33.695 19.042h21.166z" fill="#fff"/>
  </g>
  <path d="m706.22 519.74v7e-3q-2.676 1.807-3.172 3.432-0.821 2.693 3.172 6.565h38.95v-4.108c-2.384 0.064-4.77 0.098-7.16 0.098-2.02 0-4.04-0.08-6.05-0.23-2.4-0.18-4.79-0.42-7.17-0.73-2.39-0.32-4.78-0.76-7.13-1.31-0.49-0.11-0.98-0.24-1.47-0.37-0.59-0.16-1.18-0.33-1.76-0.5-1.63-0.49-3.24-1.02-4.84-1.6-1.127-0.409-2.25-0.826-3.37-1.254zm-3e-3 -3.216q-3.536-3.516-2.804-5.936 0.44-1.454 2.807-3.104 3.95 2.71 6.11 3.76c2.53 1.24 5.16 2.27 7.86 3.09 1.05 0.32 2.11 0.62 3.18 0.88 1.17 0.29 2.33 0.55 3.51 0.78 0.85 0.17 1.71 0.32 2.56 0.46 0.91 0.15 1.83 0.29 2.74 0.41 2.85 0.39 5.72 0.65 8.6 0.8 1.46 0.08 2.92 0.14 4.39 0.18v4.79c-2.387 0.066-4.776 0.1-7.16 0.1-1.95 0-3.89-0.08-5.83-0.23-2.34-0.16-4.67-0.4-6.99-0.7-2.3-0.31-4.59-0.73-6.85-1.26-0.46-0.11-0.91-0.22-1.37-0.35-0.56-0.15-1.12-0.31-1.68-0.48-1.57-0.47-3.13-0.98-4.68-1.54-1.467-0.534-2.933-1.084-4.393-1.65z" fill="#fff" fill-rule="evenodd"/>
 </g>
 <g transform="translate(-.00042118 2.5)">
  <rect x="684.42" y="576.67" width="69.078" height="22.7" fill="#525b56"/>
  <g transform="matrix(1.3347 .0091672 -.016334 .7491 0 0)" fill="#fff" stroke-width=".8793" aria-label="LIB">
   <path d="m524.97 789.29h14.542v-4.4317h-8.371v-17.628h-6.1715z"/>
   <path d="m542.83 789.29h6.2044v-22.06h-6.2044z"/>
   <path d="m559.34 776.39v-5.2195h2.2979c1.8712 0 2.856 0.68938 2.856 2.5277 0 1.9696-1.2146 2.6918-2.9216 2.6918zm0 8.8962v-5.5478h2.462c2.101 0 3.2171 0.82068 3.2171 2.7247 0 1.9368-1.149 2.8232-3.0529 2.8232zm-6.0402 4.0049h9.9467c5.712 0 8.1412-2.6918 8.1412-6.27 0-3.2499-1.904-4.7271-4.6615-5.2195v-0.0985c2.5277-0.7222 3.6767-2.3307 3.6767-4.8584 0-3.7423-2.6262-5.6135-7.5503-5.6135h-9.5528z"/>
  </g>
 </g>
</svg>
