<?xml version="1.0" encoding="UTF-8" standalone="no"?>
<!-- Created with Inkscape (http://www.inkscape.org/) -->

<svg
   width="101.094mm"
   height="89.96759mm"
   viewBox="0 0 101.09401 89.96759"
   version="1.1"
   id="svg1040"
   inkscape:version="1.2.2 (b0a8486, 2022-12-01)"
   sodipodi:docname="index_user_guide.svg"
   xmlns:inkscape="http://www.inkscape.org/namespaces/inkscape"
   xmlns:sodipodi="http://sodipodi.sourceforge.net/DTD/sodipodi-0.dtd"
   xmlns="http://www.w3.org/2000/svg"
   xmlns:svg="http://www.w3.org/2000/svg"
   xmlns:rdf="http://www.w3.org/1999/02/22-rdf-syntax-ns#"
   xmlns:cc="http://creativecommons.org/ns#"
   xmlns:dc="http://purl.org/dc/elements/1.1/">
  <defs
     id="defs1034" />
  <sodipodi:namedview
     id="base"
     pagecolor="#ffffff"
     bordercolor="#666666"
     borderopacity="1.0"
     inkscape:pageopacity="0.0"
     inkscape:pageshadow="2"
     inkscape:zoom="0.75829947"
     inkscape:cx="274.29796"
     inkscape:cy="149.67701"
     inkscape:document-units="mm"
     inkscape:current-layer="layer1"
     showgrid="false"
     fit-margin-top="0"
     fit-margin-left="0"
     fit-margin-right="0"
     fit-margin-bottom="0"
     inkscape:window-width="1349"
     inkscape:window-height="757"
     inkscape:window-x="962"
     inkscape:window-y="246"
     inkscape:window-maximized="0"
     inkscape:showpageshadow="2"
     inkscape:pagecheckerboard="0"
     inkscape:deskcolor="#d1d1d1" />
  <metadata
     id="metadata1037">
    <rdf:RDF>
      <cc:Work
         rdf:about="">
        <dc:format>image/svg+xml</dc:format>
        <dc:type
           rdf:resource="http://purl.org/dc/dcmitype/StillImage" />
      </cc:Work>
    </rdf:RDF>
  </metadata>
  <g
     inkscape:label="Layer 1"
     inkscape:groupmode="layer"
     id="layer1"
     transform="translate(141.8903,-20.32143)">
    <path
       style="fill:#5a5a5a;fill-opacity:1;stroke-width:0.985;stroke-dasharray:none"
       d="m -139.96475,110.1657 c -0.65718,-0.24884 -1.40143,-1.11296 -1.69227,-1.96486 -0.19533,-0.57214 -0.2325,-6.28104 -0.2325,-35.720988 0,-38.274546 -0.0645,-35.840728 0.9793,-36.91568 0.48102,-0.495345 3.78944,-2.187548 6.92902,-3.544073 l 1.29714,-0.560453 v -3.309822 c 0,-3.025538 0.0324,-3.388179 0.37657,-4.222122 0.56223,-1.362003 1.13308,-1.714455 3.76128,-2.322195 3.37298,-0.779966 4.19422,-0.912766 7.20313,-1.16476 9.64969,-0.808168 18.6374,2.509277 25.30196,9.3392 1.430258,1.465747 3.13838,3.5635 4.159301,5.108065 l 0.538571,0.814805 0.53856,-0.814805 c 1.020914,-1.544565 2.729027,-3.642318 4.159293,-5.108065 6.664565,-6.829923 15.652261,-10.147368 25.301965,-9.3392 3.008893,0.251994 3.830156,0.384794 7.203126,1.16476 2.628188,0.60774 3.199049,0.960192 3.761274,2.322195 0.344245,0.833943 0.376578,1.196584 0.376578,4.222122 v 3.309822 l 1.297135,0.560453 c 3.351472,1.448077 6.527447,3.072753 6.966542,3.563743 1.00212,1.120567 0.941777,-1.245868 0.941777,36.927177 0,34.567591 -0.0041,35.083151 -0.332259,35.903991 -0.182745,0.45804 -0.602442,1.05665 -0.932666,1.33024 -0.999162,0.82783 -1.779006,0.70485 -4.794869,-0.7561 -7.514041,-3.63998 -15.48902,-6.38443 -21.891287,-7.53353 -2.474409,-0.44412 -7.567921,-0.61543 -9.624015,-0.3237 -4.243683,0.60212 -7.138303,2.05527 -9.560141,4.79936 -0.559308,0.63371 -1.197988,1.23646 -1.419291,1.33942 -0.521794,0.2428 -3.461675,0.2428 -3.98347,0 -0.221296,-0.10296 -0.859977,-0.70571 -1.419276,-1.33942 -2.421854,-2.74409 -5.316468,-4.19724 -9.560158,-4.79936 -2.05609,-0.29173 -7.1496,-0.12042 -9.62401,0.3237 -6.35865,1.14127 -14.21731,3.83907 -21.84395,7.49883 -2.76447,1.32658 -3.39527,1.50926 -4.18236,1.21125 z m 3.44058,-5.34052 c 4.79443,-2.29858 11.76954,-4.922695 16.50696,-6.210065 5.16069,-1.402418 6.96466,-1.646248 12.18785,-1.647338 3.82975,-7.94e-4 4.91378,0.0632 5.93038,0.3497 0.68418,0.19286 1.27554,0.312028 1.31413,0.264819 0.1202,-0.147119 -1.47348,-1.307431 -3.39497,-2.471801 -6.63905,-4.023029 -14.93102,-4.986568 -23.76635,-2.761718 -0.89502,0.22538 -1.90146,0.40827 -2.23653,0.406418 -0.92159,-0.005 -1.88375,-0.76382 -2.32479,-1.8332 l -0.37657,-0.913098 V 62.99179 35.97471 l -0.46028,0.138329 c -0.25315,0.07608 -1.55238,0.665075 -2.88716,1.308881 -1.85932,0.896801 -2.42201,1.252878 -2.40597,1.522563 0.0114,0.193604 0.0304,15.284513 0.0418,33.535345 0.0114,18.250839 0.044,33.183322 0.0722,33.183322 0.0283,0 0.83789,-0.3771 1.79925,-0.83801 z m 92.338391,-32.697216 -0.04233,-33.535203 -2.594262,-1.272156 c -1.426851,-0.699685 -2.726078,-1.278755 -2.887162,-1.286819 -0.277537,-0.01389 -0.292907,1.401778 -0.292907,26.980216 v 26.994863 l -0.376578,0.913112 c -0.44104,1.06939 -1.403203,1.828088 -2.324782,1.833189 -0.335077,0.0021 -1.34152,-0.181031 -2.236542,-0.406421 -9.713889,-2.446089 -18.665394,-1.046438 -25.73142,4.02332 -1.374163,0.985941 -1.811312,1.467501 -1.115623,1.228942 1.287085,-0.441362 4.077829,-0.73864 6.965693,-0.742011 4.865367,-0.005 9.339867,0.791951 15.613815,2.78333 3.228866,1.024874 9.9323,3.687454 12.803928,5.085704 1.012603,0.49306 1.935464,0.90517 2.050807,0.9158 0.167416,0.0155 0.201171,-6.745894 0.167367,-33.515866 z M -93.016978,69.894187 V 40.065438 l -0.784191,-1.357442 c -1.128029,-1.952627 -4.392961,-5.847994 -6.245411,-7.45136 -3.08759,-2.672401 -7.40573,-4.943324 -11.17186,-5.875304 -2.61253,-0.646503 -4.27401,-0.833103 -7.40202,-0.831312 -3.57659,0.0021 -6.29352,0.349169 -9.6701,1.235469 l -0.8787,0.230645 v 31.242342 c 0,26.565778 0.0348,31.226011 0.2323,31.133261 0.12777,-0.06 1.16338,-0.297169 2.30135,-0.527026 10.11294,-2.042634 18.97035,-0.346861 26.57354,5.087596 1.716065,1.226558 4.250589,3.618878 5.622441,5.30692 0.644376,0.792909 1.228089,1.446609 1.297126,1.452679 0.06905,0.006 0.125525,-13.411893 0.125525,-29.817719 z m 4.741005,28.3766 c 5.078101,-6.141601 12.325906,-10.061509 20.448444,-11.05933 3.482836,-0.427849 9.461992,-0.0054 13.088084,0.924912 0.620443,0.15916 1.186916,0.244888 1.258813,0.190498 0.07191,-0.05434 0.130761,-14.060382 0.130761,-31.124436 V 26.176883 l -0.426005,-0.198219 c -0.546585,-0.254325 -3.902886,-0.95482 -5.850444,-1.221048 -1.972259,-0.269605 -6.994283,-0.266589 -8.791402,0.0052 -5.276944,0.798299 -10.282503,3.083792 -14.222216,6.49374 -1.852448,1.603366 -5.11738,5.498733 -6.245415,7.45136 l -0.784191,1.357438 v 29.828747 c 0,16.405812 0.04347,29.828746 0.09643,29.828746 0.05311,0 0.636753,-0.65347 1.297137,-1.452149 z"
       id="path845"
       inkscape:connector-curvature="0"
       sodipodi:nodetypes="csscccscsssscsssssscscsccsccsccscsscccccccscccccccccsccscscscccscccsccssccsscccscccccsccccsccscsccsscc" />
  </g>
</svg>
